<svg xmlns="http://www.w3.org/2000/svg" viewBox="-18772 -9212 32 24">
  <defs>
    <style>
      .cls-1 {
        fill: #fff;
      }
    </style>
  </defs>
  <path id="quote" class="cls-1" d="M17.333,18.633A16.432,16.432,0,0,1,30.667,3l1.312,2.835c-2.953,1.113-5.551,4.989-5.84,7.661A6.951,6.951,0,0,1,32,20.361C32,24.6,28.555,27,25.068,27,21.048,27,17.333,23.927,17.333,18.633ZM0,18.633A16.432,16.432,0,0,1,13.333,3l1.312,2.835c-2.953,1.113-5.551,4.989-5.84,7.661a6.951,6.951,0,0,1,5.861,6.865C14.667,24.6,11.221,27,7.735,27,3.715,27,0,23.927,0,18.633Z" transform="translate(-18772 -9215)"/>
</svg>
